#!OML:ASF F:\VICON\USERDATA\INSTALL\rory3\rory3.ASF
:FULLY-SPECIFIED
:DEGREES
318
root 1.99494 18.901 -4.29879 -3.63283 -9.26756 2.24028
lowerback 5.01578 1.16894 -3.31066
upperback 0.923942 1.35101 -1.3062
thorax -1.90592 0.689136 0.424333
lowerneck -10.9328 -1.87328 -6.6137
upperneck 27.8809 -3.15133 6.75369
head 10.9848 -1.36005 3.20014
rclavicle 9.95787e-015 4.77083e-015
rhumerus -27.1162 36.6983 -93.907
rradius 88.7675
rwrist -13.4164
rhand -36.2888 10.893
rfingers 7.12502
rthumb -9.38848 -18.8779
lclavicle 9.95787e-015 4.77083e-015
lhumerus -10.5006 -43.9452 76.748
lradius 100.728
lwrist -29.6466
lhand 0.752772 15.9956
lfingers 7.12502
lthumb 26.3112 44.1908
rfemur 4.87672 19.5435 16.409
rtibia 12.7966
rfoot -13.5346 -21.5632
rtoes -6.13938
lfemur 0 0 0
ltibia 0
lfoot 0 0
ltoes 0
319
root 1.99617 18.9017 -4.29605 -3.62884 -9.22124 2.26728
lowerback 4.97974 1.15563 -3.31599
upperback 0.943636 1.3353 -1.30476
thorax -1.86514 0.680673 0.43088
lowerneck -10.9128 -1.86407 -6.64998
upperneck 27.8229 -3.13813 6.78997
head 10.9588 -1.35368 3.22009
rclavicle 1.86671e-014 1.19271e-015
rhumerus -27.1205 36.704 -93.8763
rradius 88.8229
rwrist -13.4229
rhand -36.3583 10.764
rfingers 7.12502
rthumb -9.4555 -19.0038
lclavicle 1.86671e-014 1.19271e-015
lhumerus -10.3383 -44.0052 76.6397
lradius 100.716
lwrist -29.8989
lhand 0.679076 15.8093
lfingers 7.12502
lthumb 26.2406 44.015
rfemur 4.87016 19.4405 16.3654
rtibia 12.8308
rfoot -13.5298 -21.5102
rtoes -6.20919
lfemur 0 0 0
ltibia 0
lfoot 0 0
ltoes 0
320
root 1.99658 18.9024 -4.29392 -3.5945 -9.16158 2.26411
lowerback 4.9381 1.12983 -3.30139
upperback 0.943619 1.30386 -1.29658
thorax -1.84073 0.664667 0.434086
lowerneck -10.9038 -1.86078 -6.64576
upperneck 27.795 -3.12646 6.7655
head 10.9451 -1.35079 3.21106
rclavicle -1.00821e-014 -9.14409e-015
rhumerus -27.104 36.7075 -93.8675
rradius 88.8644
rwrist -13.4593
rhand -36.3811 10.7003
rfingers 7.12502
rthumb -9.47753 -19.0666
lclavicle -1.00821e-014 -9.14409e-015
lhumerus -10.2458 -44.0437 76.5828
lradius 100.695
lwrist -30.164
lhand 0.732814 15.6565
lfingers 7.12502
lthumb 26.2921 43.8545
rfemur 4.85475 19.3631 16.3611
rtibia 12.834
rfoot -13.5686 -21.4938
rtoes -6.21383
lfemur 0 0 0
ltibia 0
lfoot 0 0
ltoes 0
321
root 1.99676 18.9021 -4.29246 -3.58185 -9.12507 2.29001
lowerback 4.9132 1.11401 -3.31782
upperback 0.952311 1.28315 -1.30599
thorax -1.81733 0.654047 0.435589
lowerneck -10.9493 -1.86198 -6.59593
upperneck 27.8122 -3.12456 6.71927
head 10.9591 -1.34933 3.18593
rclavicle -6.00702e-015 -1.19271e-015
rhumerus -27.0587 36.6635 -93.868
rradius 88.8915
rwrist -13.5108
rhand -36.3884 10.9337
rfingers 7.12502
rthumb -9.4846 -18.8328
lclavicle -6.00702e-015 -1.19271e-015
lhumerus -10.1367 -44.1192 76.5077
lradius 100.643
lwrist -30.3919
lhand 0.720845 15.757
lfingers 7.12502
lthumb 26.2806 43.9567
rfemur 4.83672 19.3354 16.3279
rtibia 12.8117
rfoot -13.5017 -21.5212
rtoes -6.36413
lfemur 0 0 0
ltibia 0
lfoot 0 0
ltoes 0
322
root 1.99723 18.9021 -4.29257 -3.59307 -9.11442 2.33442
lowerback 4.93427 1.10649 -3.35979
upperback 0.958052 1.2699 -1.31614
thorax -1.82344 0.647635 0.449156
lowerneck -10.9987 -1.85535 -6.56954
upperneck 27.8554 -3.11761 6.70937
head 10.9842 -1.34384 3.17963
rclavicle -2.38542e-015 1.27222e-014
rhumerus -27.0361 36.6469 -93.8735
rradius 88.9123
rwrist -13.4901
rhand -36.4314 10.8791
rfingers 7.12502
rthumb -9.52608 -18.8855
lclavicle -2.38542e-015 1.27222e-014
lhumerus -10.0173 -44.1984 76.4366
lradius 100.547
lwrist -30.5438
lhand -0.104175 15.801
lfingers 7.12502
lthumb 25.4906 44.1161
rfemur 4.82777 19.3127 16.2737
rtibia 12.7967
rfoot -13.3693 -21.5642
rtoes -6.77557
lfemur 0 0 0
ltibia 0
lfoot 0 0
ltoes 0
323
root 1.9968 18.9025 -4.29259 -3.58781 -9.11129 2.27824
lowerback 4.97178 1.10453 -3.30846
upperback 0.938876 1.26816 -1.29387
thorax -1.8635 0.647228 0.442459
lowerneck -11.002 -1.84534 -6.58541
upperneck 27.8984 -3.1132 6.7497
head 11.0016 -1.33888 3.19901
rclavicle -2.32827e-014 2.38542e-015
rhumerus -27.0457 36.6507 -93.8813
rradius 88.9352
rwrist -13.4875
rhand -36.4769 10.5219
rfingers 7.12502
rthumb -9.57001 -19.2407
lclavicle -2.32827e-014 2.38542e-015
lhumerus -9.9875 -44.2727 76.4339
lradius 100.455
lwrist -30.7215
lhand -1.50486 15.7209
lfingers 7.12502
lthumb 24.1482 44.2209
rfemur 4.84383 19.3059 16.3404
rtibia 12.7978
rfoot -13.3667 -21.6004
rtoes -6.90408
lfemur 0 0 0
ltibia 0
lfoot 0 0
ltoes 0
324
root 1.99626 18.903 -4.29206 -3.57719 -9.11127 2.2251
lowerback 5.00095 1.10964 -3.24727
upperback 0.914856 1.27644 -1.28291
thorax -1.90373 0.651754 0.418075
lowerneck -10.944 -1.85311 -6.62158
upperneck 27.8714 -3.13511 6.80854
head 10.9828 -1.34678 3.22363
rclavicle -1.69961e-014 7.95139e-016
rhumerus -27.0441 36.6135 -93.9024
rradius 88.9509
rwrist -13.5296
rhand -36.517 10.5254
rfingers 7.12502
rthumb -9.60869 -19.2355
lclavicle -1.69961e-014 7.95139e-016
lhumerus -10.013 -44.3621 76.452
lradius 100.412
lwrist -30.962
lhand -2.12128 15.8644
lfingers 7.12502
lthumb 23.5571 44.4417
rfemur 4.8663 19.2894 16.4036
rtibia 12.7727
rfoot -13.3587 -21.6199
rtoes -6.89907
lfemur 0 0 0
ltibia 0
lfoot 0 0
ltoes 0
325
root 1.9966 18.9024 -4.29187 -3.58816 -9.11055 2.26549
lowerback 5.05212 1.11442 -3.27431
upperback 0.885671 1.27792 -1.29387
thorax -1.96277 0.653583 0.420404
lowerneck -10.8559 -1.8602 -6.66862
upperneck 27.8158 -3.14935 6.85134
head 10.9467 -1.35468 3.24445
rclavicle -5.13113e-015 9.14409e-015
rhumerus -27.0537 36.5935 -93.932
rradius 88.9437
rwrist -13.5242
rhand -36.5513 10.8796
rfingers 7.12502
rthumb -9.64178 -18.8798
lclavicle -5.13113e-015 9.14409e-015
lhumerus -10.0555 -44.4555 76.4906
lradius 100.374
lwrist -31.1827
lhand -2.08317 16.1708
lfingers 7.12502
lthumb 23.5936 44.7434
rfemur 4.88654 19.3204 16.3591
rtibia 12.7335
rfoot -13.3797 -21.6299
rtoes -6.73828
lfemur 0 0 0
ltibia 0
lfoot 0 0
ltoes 0
326
root 1.99605 18.9012 -4.29035 -3.59314 -9.11637 2.29296
lowerback 5.07126 1.11581 -3.31076
upperback 0.862218 1.27645 -1.2843
thorax -1.99859 0.653748 0.450022
lowerneck -10.8166 -1.85373 -6.70547
upperneck 27.8087 -3.14038 6.87445
head 10.9363 -1.35245 3.2604
rclavicle 3.13179e-014 7.15625e-015
rhumerus -27.0489 36.6407 -93.9336
rradius 88.9293
rwrist -13.5114
rhand -36.5184 10.9371
rfingers 7.12502
rthumb -9.61003 -18.8237
lclavicle 3.13179e-014 7.15625e-015
lhumerus -10.0916 -44.5299 76.5479
lradius 100.306
lwrist -31.4081
lhand -2.21837 16.3766
lfingers 7.12502
lthumb 23.4639 44.9658
rfemur 4.88871 19.3918 16.3341
rtibia 12.7185
rfoot -13.4201 -21.6693
rtoes -6.59465
lfemur 0 0 0
ltibia 0
lfoot 0 0
ltoes 0
327
root 1.99429 18.9012 -4.28734 -3.58439 -9.11062 2.29171
lowerback 5.03375 1.11635 -3.32826
upperback 0.861756 1.27834 -1.26743
thorax -1.97891 0.654629 0.477761
lowerneck -10.8413 -1.85532 -6.69342
upperneck 27.818 -3.14132 6.86371
head 10.9445 -1.3524 3.25445
rclavicle -1.04921e-014 -3.97569e-015
rhumerus -27.0536 36.6515 -93.9357
rradius 88.9614
rwrist -13.4737
rhand -36.5083 10.7046
rfingers 7.12502
rthumb -9.60028 -19.0566
lclavicle -1.04921e-014 -3.97569e-015
lhumerus -10.072 -44.6175 76.5678
lradius 100.267
lwrist -31.6097
lhand -2.47493 16.6072
lfingers 7.12502
lthumb 23.2178 45.2277
rfemur 4.90668 19.3838 16.3473
rtibia 12.6852
rfoot -13.3665 -21.7109
rtoes -6.72784
lfemur 0 0 0
ltibia 0
lfoot 0 0
ltoes 0
328
root 1.993 18.9019 -4.28569 -3.58953 -9.09252 2.20968
lowerback 5.03918 1.10952 -3.24104
upperback 0.899497 1.2753 -1.24423
thorax -1.94162 0.651849 0.453442
lowerneck -10.9862 -1.8631 -6.64289
upperneck 27.8383 -3.14885 6.83828
head 10.9808 -1.35085 3.23575
rclavicle -1.76452e-014 -1.90833e-014
rhumerus -27.0253 36.602 -93.9225
rradius 89.027
rwrist -13.4074
rhand -36.5363 10.6274
rfingers 7.12502
rthumb -9.62723 -19.1326
lclavicle -1.76452e-014 -1.90833e-014
lhumerus -9.91024 -44.71 76.4681
lradius 100.235
lwrist -31.7527
lhand -2.81928 16.9357
lfingers 7.12502
lthumb 22.8874 45.5975
rfemur 4.98863 19.3579 16.463
rtibia 12.6165
rfoot -13.3383 -21.7085
rtoes -6.74662
lfemur 0 0 0
ltibia 0
lfoot 0 0
ltoes 0
329
root 1.99226 18.9019 -4.28527 -3.59585 -9.07748 2.04264
lowerback 5.08741 1.09872 -3.05365
upperback 0.943023 1.27094 -1.20786
thorax -1.92043 0.648048 0.385948
lowerneck -11.1591 -1.8722 -6.56081
upperneck 27.8689 -3.15784 6.78931
head 11.0259 -1.34895 3.20286
rclavicle -8.20608e-015 1.11319e-014
rhumerus -26.8991 36.5678 -93.8675
rradius 89.0427
rwrist -13.4413
rhand -36.5292 10.9406
rfingers 7.12502
rthumb -9.62047 -18.8197
lclavicle -8.20608e-015 1.11319e-014
lhumerus -9.74425 -44.7913 76.3655
lradius 100.159
lwrist -31.8352
lhand -3.21484 17.2861
lfingers 7.12502
lthumb 22.5078 45.9943
rfemur 5.08994 19.3862 16.6755
rtibia 12.5472
rfoot -13.3922 -21.681
rtoes -6.57881
lfemur 0 0 0
ltibia 0
lfoot 0 0
ltoes 0
330
root 1.99164 18.9015 -4.28414 -3.5876 -9.04587 1.94902
lowerback 5.10272 1.09761 -2.94894
upperback 0.950931 1.27532 -1.18006
thorax -1.91935 0.649646 0.355459
lowerneck -11.2417 -1.87672 -6.51279
upperneck 27.8954 -3.15871 6.74437
head 11.0512 -1.34799 3.17839
rclavicle -1.47722e-014 -5.56597e-015
rhumerus -26.7936 36.5424 -93.8138
rradius 89.0379
rwrist -13.5621
rhand -36.586 11.31
rfingers 7.12502
rthumb -9.67518 -18.4478
lclavicle -1.47722e-014 -5.56597e-015
lhumerus -9.69004 -44.8671 76.3929
lradius 100.07
lwrist -31.8495
lhand -3.45953 17.5242
lfingers 7.12502
lthumb 22.2729 46.2607
rfemur 5.1617 19.4108 16.7915
rtibia 12.4681
rfoot -13.4197 -21.684
rtoes -6.40503
lfemur 0 0 0
ltibia 0
lfoot 0 0
ltoes 0
331
root 1.99139 18.9007 -4.28221 -3.58173 -8.98947 1.93594
lowerback 5.07352 1.08459 -2.93553
upperback 0.965419 1.26076 -1.15997
thorax -1.88787 0.641921 0.370354
lowerneck -11.3014 -1.87271 -6.53408
upperneck 27.9135 -3.14247 6.73572
head 11.0691 -1.34268 3.18146
rclavicle -3.76573e-014 1.59028e-014
rhumerus -26.7133 36.549 -93.7717
rradius 89.04
rwrist -13.6273
rhand -36.752 11.3544
rfingers 7.12502
rthumb -9.83534 -18.3959
lclavicle -3.76573e-014 1.59028e-014
lhumerus -9.63183 -44.8802 76.4238
lradius 99.9809
lwrist -31.9638
lhand -3.7096 17.5853
lfingers 7.12502
lthumb 22.0328 46.3502
rfemur 5.21053 19.4267 16.8142
rtibia 12.3743
rfoot -13.3996 -21.7432
rtoes -6.33941
lfemur 0 0 0
ltibia 0
lfoot 0 0
ltoes 0
332
root 1.9914 18.9002 -4.27983 -3.58327 -8.93203 1.92824
lowerback 5.05253 1.06121 -2.90854
upperback 0.984658 1.23243 -1.1612
thorax -1.85495 0.62715 0.356567
lowerneck -11.3571 -1.8752 -6.5241
upperneck 27.9246 -3.14105 6.71993
head 11.0841 -1.34187 3.17431
rclavicle 6.49777e-015 -1.70955e-014
rhumerus -26.6779 36.5247 -93.781
rradius 89.0433
rwrist -13.6019
rhand -36.8297 11.3473
rfingers 7.12502
rthumb -9.91039 -18.3995
lclavicle 6.49777e-015 -1.70955e-014
lhumerus -9.57405 -44.888 76.3971
lradius 99.8815
lwrist -32.187
lhand -4.19613 17.5826
lfingers 7.12502
lthumb 21.5656 46.4019
rfemur 5.25436 19.4297 16.8339
rtibia 12.3094
rfoot -13.38 -21.8113
rtoes -6.35724
lfemur 0 0 0
ltibia 0
lfoot 0 0
ltoes 0
